<svg width="140" height="140" viewBox="0 0 140 140" fill="none" xmlns="http://www.w3.org/2000/svg">
<circle cx="70" cy="70" r="70" fill="white"/>
<g clip-path="url(#clip0)">
<path d="M79.1902 44.11V48.59L78.1902 47.76L77.1602 48.59V44.11H79.1902Z" stroke="#004D9E" stroke-width="2" stroke-miterlimit="10"/>
<path d="M70 2C83.4492 2 96.5963 5.98813 107.779 13.4601C118.961 20.932 127.677 31.5522 132.824 43.9775C137.971 56.4029 139.317 70.0754 136.693 83.2661C134.07 96.4568 127.593 108.573 118.083 118.083C108.573 127.593 96.4569 134.07 83.2662 136.693C70.0755 139.317 56.4029 137.971 43.9776 132.824C31.5522 127.677 20.932 118.961 13.4601 107.779C5.98816 96.5962 2.00003 83.4491 2.00003 70C2.0212 51.9718 9.19227 34.688 21.9402 21.9401C34.688 9.19224 51.9718 2.02117 70 2ZM70 0C56.1553 0 42.6216 4.10543 31.1101 11.7971C19.5987 19.4888 10.6266 30.4213 5.32847 43.2122C0.0303326 56.003 -1.3559 70.0777 1.34506 83.6563C4.04603 97.235 10.7129 109.708 20.5026 119.497C30.2922 129.287 42.765 135.954 56.3437 138.655C69.9224 141.356 83.997 139.97 96.7879 134.672C109.579 129.373 120.511 120.401 128.203 108.89C135.895 97.3785 140 83.8447 140 70C140 51.4348 132.625 33.6301 119.498 20.5025C106.37 7.37498 88.5652 0 70 0Z" fill="#929292"/>
<path d="M123 80.77C123 94.8265 117.416 108.307 107.477 118.247C97.5374 128.186 84.0567 133.77 70.0002 133.77C55.9437 133.77 42.463 128.186 32.5236 118.247C22.5841 108.307 17.0002 94.8265 17.0002 80.77H123ZM125 78.77H14.9702C14.9702 93.3662 20.7685 107.365 31.0896 117.686C41.4107 128.007 55.409 133.805 70.0052 133.805C84.6014 133.805 98.5998 128.007 108.921 117.686C119.242 107.365 125.04 93.3662 125.04 78.77H125Z" fill="#929292"/>
<path d="M70.06 34.76C80.67 34.76 89.96 46.57 92.13 62.84C92.35 64.54 92.5 66.27 92.56 68H47.56C47.62 66.34 47.75 64.68 47.96 63C50.08 46.66 59.37 34.76 70.06 34.76ZM70.06 32.76C58.13 32.76 48.19 45.67 45.98 62.76C45.673 65.151 45.5193 67.5593 45.52 69.97H94.65C94.6508 67.4852 94.4871 65.0031 94.16 62.54C91.89 45.54 81.99 32.73 70.11 32.73L70.06 32.76Z" fill="#929292"/>
<path d="M31.11 46.94C36.64 46.94 41.83 52.58 44.05 60.94C44.6491 63.2305 45.0144 65.5758 45.14 67.94H17.08C17.73 56.34 23.89 46.88 31.08 46.88L31.11 46.94ZM31.08 44.88C22.2 44.88 15 56.1 15 69.94H47.16C47.1699 66.7211 46.7632 63.5145 45.95 60.4C43.55 51.29 37.79 44.88 31.08 44.88Z" fill="#929292"/>
<path d="M108.91 46.94C116.26 46.94 122.31 56.22 122.91 68H94.8802C95.0088 65.5326 95.3976 63.0857 96.0402 60.7C98.3302 52.34 103.39 46.94 108.91 46.94ZM108.91 44.94C102.27 44.94 96.5702 51.22 94.1102 60.17C93.2518 63.3759 92.8214 66.6812 92.8302 70H124.98C124.98 56.16 117.79 44.94 108.91 44.94Z" fill="#929292"/>
<path d="M69.9999 17.03C71.5486 17.03 73.0624 17.4893 74.35 18.3496C75.6377 19.21 76.6413 20.4329 77.2339 21.8636C77.8265 23.2944 77.9816 24.8687 77.6795 26.3876C77.3774 27.9065 76.6316 29.3016 75.5366 30.3967C74.4415 31.4917 73.0464 32.2375 71.5275 32.5396C70.0086 32.8417 68.4343 32.6866 67.0035 32.094C65.5728 31.5014 64.3499 30.4978 63.4895 29.2101C62.6292 27.9225 62.1699 26.4087 62.1699 24.86C62.1726 22.7842 62.9984 20.7941 64.4662 19.3263C65.934 17.8585 67.9241 17.0327 69.9999 17.03ZM69.9999 15.03C68.0557 15.03 66.1552 15.6065 64.5387 16.6867C62.9221 17.7668 61.6622 19.3021 60.9182 21.0983C60.1742 22.8944 59.9795 24.8709 60.3588 26.7778C60.7381 28.6846 61.6743 30.4361 63.0491 31.8109C64.4238 33.1856 66.1754 34.1219 68.0822 34.5011C69.989 34.8804 71.9655 34.6858 73.7617 33.9418C75.5579 33.1978 77.0931 31.9378 78.1733 30.3213C79.2534 28.7048 79.8299 26.8042 79.8299 24.86C79.8273 22.2538 78.7908 19.755 76.9479 17.9121C75.105 16.0692 72.6062 15.0327 69.9999 15.03Z" fill="#929292"/>
<path d="M71.7101 109.57C85.8301 109.57 98.8601 112.08 107.27 116.35C97.3621 126.201 83.9719 131.752 70.0001 131.8C56.6219 131.805 43.7459 126.705 34.0001 117.54C42.1101 112.59 56.2301 109.54 71.7401 109.54L71.7101 109.57ZM71.7401 107.54C53.9601 107.54 38.5301 111.47 30.8501 117.23C36.0589 122.581 42.3083 126.808 49.2131 129.651C56.1178 132.494 63.5317 133.893 70.9978 133.762C78.464 133.631 85.8241 131.972 92.6248 128.888C99.4254 125.804 105.522 121.36 110.54 115.83C102.35 110.83 88.0301 107.54 71.7401 107.54Z" fill="#8AB2E6"/>
<path d="M108.9 29.3C110.448 29.3 111.962 29.7592 113.25 30.6196C114.538 31.48 115.541 32.7028 116.134 34.1336C116.726 35.5643 116.881 37.1387 116.579 38.6575C116.277 40.1764 115.532 41.5716 114.436 42.6666C113.341 43.7617 111.946 44.5074 110.427 44.8095C108.909 45.1117 107.334 44.9566 105.903 44.364C104.473 43.7713 103.25 42.7677 102.389 41.4801C101.529 40.1925 101.07 38.6786 101.07 37.13C101.072 35.0542 101.898 33.0641 103.366 31.5963C104.834 30.1284 106.824 29.3026 108.9 29.3ZM108.9 27.3C106.956 27.3 105.055 27.8765 103.439 28.9566C101.822 30.0368 100.562 31.572 99.8181 33.3682C99.0741 35.1644 98.8794 37.1409 99.2587 39.0477C99.638 40.9546 100.574 42.7061 101.949 44.0808C103.324 45.4556 105.075 46.3918 106.982 46.7711C108.889 47.1504 110.865 46.9557 112.662 46.2117C114.458 45.4677 115.993 44.2078 117.073 42.5912C118.153 40.9747 118.73 39.0742 118.73 37.13C118.727 34.5237 117.691 32.025 115.848 30.1821C114.005 28.3391 111.506 27.3026 108.9 27.3Z" fill="#929292"/>
<path d="M31.1098 29.3C32.6584 29.3 34.1723 29.7592 35.4599 30.6196C36.7475 31.48 37.7511 32.7028 38.3438 34.1336C38.9364 35.5643 39.0915 37.1387 38.7893 38.6575C38.4872 40.1764 37.7415 41.5716 36.6464 42.6666C35.5514 43.7617 34.1562 44.5074 32.6373 44.8095C31.1185 45.1117 29.5441 44.9566 28.1134 44.364C26.6826 43.7713 25.4598 42.7677 24.5994 41.4801C23.739 40.1925 23.2798 38.6786 23.2798 37.13C23.2824 35.0542 24.1082 33.0641 25.5761 31.5963C27.0439 30.1284 29.034 29.3026 31.1098 29.3ZM31.1098 27.3C29.1656 27.3 27.2651 27.8765 25.6485 28.9566C24.032 30.0368 22.7721 31.572 22.0281 33.3682C21.284 35.1644 21.0894 37.1409 21.4687 39.0477C21.848 40.9546 22.7842 42.7061 24.1589 44.0808C25.5337 45.4556 27.2852 46.3918 29.1921 46.7711C31.0989 47.1504 33.0754 46.9557 34.8716 46.2117C36.6678 45.4677 38.203 44.2078 39.2831 42.5912C40.3633 40.9747 40.9398 39.0742 40.9398 37.13C40.9371 34.5237 39.9006 32.025 38.0577 30.1821C36.2148 28.3391 33.7161 27.3026 31.1098 27.3Z" fill="#929292"/>
<path d="M70.0601 79.97L70.6601 131.96" stroke="#929292" stroke-width="2" stroke-linecap="round" stroke-linejoin="round"/>
<path d="M99 80.0313C99 109.29 86.0172 133 70.005 133C53.9929 133 41 109.28 41 80.0313C41 79.9203 41 80.344 41 80.0313H98.9799C99 80.344 99 79.8799 99 80.0313Z" stroke="#99B4D0" stroke-width="2" stroke-miterlimit="10"/>
<path d="M46.6799 114.97C48.9166 114.97 50.7299 113.157 50.7299 110.92C50.7299 108.683 48.9166 106.87 46.6799 106.87C44.4431 106.87 42.6299 108.683 42.6299 110.92C42.6299 113.157 44.4431 114.97 46.6799 114.97Z" fill="#004D9E"/>
<path d="M78.1698 47.48C79.8819 47.48 81.2698 46.0921 81.2698 44.38C81.2698 42.6679 79.8819 41.28 78.1698 41.28C76.4577 41.28 75.0698 42.6679 75.0698 44.38C75.0698 46.0921 76.4577 47.48 78.1698 47.48Z" fill="#004D9E"/>
<path d="M114.65 54.2V58.69L113.66 57.85L112.62 58.69V54.2H114.65Z" stroke="#8AB2E6" stroke-width="2" stroke-miterlimit="10"/>
<path d="M113.64 57.58C115.352 57.58 116.74 56.1921 116.74 54.48C116.74 52.7679 115.352 51.38 113.64 51.38C111.928 51.38 110.54 52.7679 110.54 54.48C110.54 56.1921 111.928 57.58 113.64 57.58Z" fill="#8AB2E6"/>
<path d="M36.3801 54.2V58.69L35.3801 57.85L34.3501 58.69V54.2H36.3801Z" stroke="#6BBBE8" stroke-width="2" stroke-miterlimit="10"/>
<path d="M35.3598 57.58C37.0719 57.58 38.4598 56.1921 38.4598 54.48C38.4598 52.7679 37.0719 51.38 35.3598 51.38C33.6477 51.38 32.2598 52.7679 32.2598 54.48C32.2598 56.1921 33.6477 57.58 35.3598 57.58Z" fill="#6BBBE8"/>
<mask id="path-20-inside-1" fill="white">
<path d="M125 79C125 93.5869 119.205 107.576 108.891 117.891C98.5764 128.205 84.5869 134 70 134C55.4131 134 41.4236 128.205 31.1091 117.891C20.7946 107.576 15 93.5869 15 79L70 79H125Z"/>
</mask>
<path d="M125 79C125 93.5869 119.205 107.576 108.891 117.891C98.5764 128.205 84.5869 134 70 134C55.4131 134 41.4236 128.205 31.1091 117.891C20.7946 107.576 15 93.5869 15 79L70 79H125Z" stroke="#929292" stroke-width="4" mask="url(#path-20-inside-1)"/>
<path d="M124.97 83.82C127.207 83.82 129.02 82.0067 129.02 79.77C129.02 77.5332 127.207 75.72 124.97 75.72C122.733 75.72 120.92 77.5332 120.92 79.77C120.92 82.0067 122.733 83.82 124.97 83.82Z" fill="#8AB2E6"/>
<circle cx="46.6797" cy="110.92" r="2.5" fill="white"/>
<circle cx="124.97" cy="79.77" r="2.5" fill="white"/>
<path d="M85.6838 15.4182C88.8206 15.4182 89.7033 13.422 89.6761 10C89.7034 13.4412 90.2465 15.4182 93.3833 15.4182C90.2465 15.4182 89.6761 18.2968 89.6761 21.4068C89.6761 18.2699 88.8206 15.4182 85.6838 15.4182Z" fill="#929292"/>
<path d="M44.9384 30.0197C46.6866 30.0197 47.1785 28.9072 47.1634 27C47.1786 28.9179 47.4813 30.0197 49.2295 30.0197C47.4813 30.0197 47.1634 31.624 47.1634 33.3572C47.1634 31.609 46.6866 30.0197 44.9384 30.0197Z" fill="#929292"/>
</g>
<defs>
<clipPath id="clip0">
<rect width="140" height="140" fill="white"/>
</clipPath>
</defs>
</svg>
